<?xml version="1.0" standalone="no"?>
<!DOCTYPE svg PUBLIC "-//W3C//DTD SVG 20010904//EN"
 "http://www.w3.org/TR/2001/REC-SVG-20010904/DTD/svg10.dtd">
<svg version="1.0" xmlns="http://www.w3.org/2000/svg"
 width="700.000000pt" height="700.000000pt" viewBox="0 0 700.000000 700.000000"
 preserveAspectRatio="xMidYMid meet">
<metadata>
Created by potrace 1.11, written by Peter Selinger 2001-2013
</metadata>
<g transform="translate(0.000000,700.000000) scale(0.100000,-0.100000)"
fill="#000000" stroke="none">
<path d="M3149 6996 c-2 -2 -41 -6 -87 -10 -243 -18 -586 -92 -832 -181 -345
-123 -720 -334 -979 -550 -512 -426 -857 -917 -1066 -1515 -63 -183 -130 -454
-150 -615 -4 -27 -8 -61 -11 -75 -26 -162 -26 -1053 0 -1099 2 -3 6 -33 10
-66 3 -33 18 -114 31 -180 14 -66 28 -131 31 -145 24 -115 113 -381 176 -525
459 -1056 1406 -1798 2538 -1989 47 -8 112 -18 145 -21 33 -4 71 -9 85 -12 14
-3 189 -7 390 -9 318 -3 411 0 615 20 52 5 229 34 280 46 170 40 237 58 358
97 572 183 1132 559 1511 1013 39 47 74 87 77 90 12 10 125 167 170 235 311
477 490 988 546 1560 4 44 8 230 8 413 l0 334 -24 19 c-23 19 -64 19 -1721 19
l-1697 0 -27 -21 -26 -20 0 -309 0 -309 26 -20 27 -21 1341 0 1342 0 23 -22
c25 -22 25 -25 6 -168 -14 -115 -73 -338 -132 -500 -100 -278 -282 -589 -480
-822 -50 -59 -257 -262 -308 -303 -27 -22 -52 -42 -55 -45 -36 -39 -254 -185
-385 -257 -216 -119 -520 -234 -715 -270 -14 -2 -44 -8 -67 -14 -57 -12 -161
-27 -253 -37 -100 -10 -678 -9 -762 1 -520 63 -963 241 -1366 552 -578 445
-960 1135 -1029 1860 -16 164 -7 823 11 854 2 3 6 29 10 56 18 148 82 383 157
573 103 259 278 549 460 758 73 84 268 273 349 337 47 37 90 71 95 75 51 41
266 174 356 221 185 95 440 191 606 227 102 22 214 43 253 48 19 2 62 8 95 13
127 17 806 8 867 -11 7 -3 33 -7 58 -10 42 -5 56 -7 120 -21 14 -3 34 -7 45
-9 28 -6 129 -32 200 -51 99 -28 329 -122 453 -187 327 -171 614 -405 857
-699 139 -168 308 -455 400 -679 28 -70 105 -307 105 -326 0 -25 34 -76 57
-85 13 -5 158 -9 322 -9 291 0 299 1 326 22 34 27 33 47 -24 268 -217 843
-764 1571 -1534 2039 -66 40 -266 143 -377 194 -186 84 -556 196 -736 222 -21
3 -61 10 -89 15 -27 5 -77 12 -110 15 -33 4 -71 9 -85 12 -28 6 -805 14 -811
9z"/>
<path d="M3219 5946 c-2 -2 -33 -7 -69 -10 -850 -86 -1611 -662 -1930 -1461
-67 -167 -127 -387 -145 -530 -2 -22 -8 -69 -12 -105 -17 -137 -9 -669 11
-775 2 -11 7 -40 11 -65 18 -114 91 -383 116 -430 5 -8 20 -44 35 -80 65 -161
165 -336 281 -492 332 -446 815 -763 1353 -887 213 -49 320 -59 635 -59 232 0
332 5 438 22 17 3 50 8 72 11 22 3 48 8 57 11 9 3 26 7 39 9 183 35 472 149
669 262 301 174 576 433 775 733 122 183 243 434 285 593 14 54 3 92 -32 103
-10 3 -160 6 -332 6 -268 1 -317 -1 -335 -14 -13 -9 -44 -58 -70 -110 -140
-273 -333 -490 -582 -651 -216 -141 -421 -218 -694 -261 -100 -16 -487 -20
-552 -6 -21 5 -60 11 -88 15 -75 9 -160 30 -265 65 -499 168 -902 576 -1060
1075 -28 88 -39 134 -66 275 -14 71 -12 532 2 625 38 244 126 474 257 673 79
119 92 135 192 240 234 247 550 423 870 485 44 9 96 19 115 23 55 11 499 13
560 3 30 -5 73 -11 95 -14 312 -46 649 -220 891 -460 140 -140 239 -275 325
-446 26 -54 54 -101 61 -106 14 -9 653 -14 675 -6 19 8 43 57 38 79 -6 31 -50
154 -80 224 -81 194 -228 439 -341 570 -89 103 -119 135 -199 213 -49 49 -115
108 -145 131 -30 23 -76 58 -102 78 -108 82 -318 200 -483 271 -153 65 -396
131 -560 153 -27 3 -61 8 -75 11 -29 6 -636 14 -641 9z"/>
</g>
</svg>
