<?xml version="1.0" standalone="no"?>
<!DOCTYPE svg PUBLIC "-//W3C//DTD SVG 20010904//EN"
 "http://www.w3.org/TR/2001/REC-SVG-20010904/DTD/svg10.dtd">
<svg version="1.0" xmlns="http://www.w3.org/2000/svg"
 width="700.000000pt" height="700.000000pt" viewBox="0 0 700.000000 700.000000"
 preserveAspectRatio="xMidYMid meet">
<metadata>
Created by potrace 1.11, written by Peter Selinger 2001-2013
</metadata>
<g transform="translate(0.000000,700.000000) scale(0.100000,-0.100000)"
fill="#000000" stroke="none">
<path d="M5338 5955 c-2 -1 -41 -5 -88 -9 -47 -4 -96 -8 -110 -11 -14 -2 -42
-6 -63 -9 -228 -34 -462 -121 -629 -233 -254 -171 -430 -455 -483 -783 -4 -25
-9 -53 -11 -63 -17 -94 -26 -1229 -10 -1412 28 -335 140 -599 337 -796 149
-150 347 -258 590 -323 115 -30 127 -33 309 -55 110 -14 201 -18 380 -16 129
1 244 5 255 8 11 2 46 8 79 12 342 41 636 174 819 369 156 167 256 403 283
667 5 43 3 56 -7 56 -21 0 -248 14 -294 18 -22 1 -95 6 -162 10 l-123 7 -1
-36 c-1 -20 -2 -39 -3 -43 -1 -5 -5 -26 -10 -48 -39 -198 -196 -355 -431 -428
-131 -41 -223 -51 -455 -51 -229 0 -353 17 -488 65 -189 68 -320 177 -400 335
-24 48 -59 155 -66 204 -3 19 -8 53 -12 75 -9 52 -9 1161 0 1245 35 334 196
543 496 643 70 23 124 35 240 53 82 12 363 10 460 -3 294 -42 482 -160 588
-368 26 -52 59 -154 68 -208 3 -23 8 -49 9 -57 2 -8 4 -30 4 -49 l1 -33 113 6
c105 6 251 15 342 21 22 2 62 4 89 4 l48 1 -7 68 c-3 37 -8 74 -10 82 -2 8 -6
31 -9 50 -27 176 -92 346 -189 493 -126 191 -299 329 -529 422 -89 35 -298 89
-388 100 -30 3 -73 9 -95 12 -39 5 -432 13 -437 8z"/>
<path d="M1538 5895 c-2 -2 -41 -5 -88 -8 -283 -18 -578 -117 -762 -257 -117
-89 -220 -211 -277 -330 -60 -123 -73 -194 -77 -405 -4 -195 3 -251 41 -360
71 -205 183 -318 398 -404 l57 -23 0 -60 c0 -32 -4 -57 -9 -54 -7 5 -37 1
-151 -19 -100 -17 -248 -82 -314 -137 -84 -71 -161 -193 -202 -322 -50 -155
-38 -397 26 -530 63 -130 203 -233 378 -276 l42 -11 0 -60 c0 -39 -4 -61 -12
-63 -7 -2 -53 -11 -103 -21 -317 -58 -489 -295 -480 -660 5 -180 42 -310 126
-432 131 -191 398 -332 747 -395 125 -23 139 -23 882 -23 415 0 791 3 835 8
358 33 719 222 867 452 91 142 128 270 133 470 7 263 -41 445 -160 603 -133
176 -389 308 -700 357 -119 20 -258 23 -955 24 -432 1 -805 4 -830 7 -155 18
-266 88 -318 204 -22 48 -25 70 -26 165 0 156 35 245 118 298 78 48 99 50 616
52 425 2 625 8 695 21 10 2 37 6 60 9 510 70 823 329 901 745 12 69 11 341 -2
410 -37 197 -173 382 -338 464 -42 21 -88 41 -103 45 -26 7 -28 12 -31 62 l-3
55 248 -37 c136 -20 268 -40 293 -44 25 -4 54 -8 65 -10 144 -20 194 -27 215
-31 14 -2 44 -7 68 -10 l42 -5 0 270 0 269 -954 0 c-525 0 -956 -1 -958 -3z
m352 -490 c302 -41 473 -167 525 -387 22 -96 19 -402 -6 -497 -45 -173 -157
-278 -364 -339 -251 -75 -613 -59 -830 35 -141 62 -224 160 -266 312 -22 83
-25 383 -4 482 47 229 238 366 550 396 33 3 61 7 63 8 6 5 285 -3 332 -10z
m785 -2997 c11 -4 45 -14 76 -22 200 -54 302 -193 301 -409 -2 -269 -146 -405
-467 -443 -78 -9 -1434 -9 -1500 0 -163 23 -279 71 -362 152 -100 98 -122 187
-122 507 l0 228 1027 -4 c565 -1 1036 -6 1047 -9z"/>
</g>
</svg>
