<?xml version="1.0" standalone="no"?>
<!DOCTYPE svg PUBLIC "-//W3C//DTD SVG 20010904//EN"
 "http://www.w3.org/TR/2001/REC-SVG-20010904/DTD/svg10.dtd">
<svg version="1.0" xmlns="http://www.w3.org/2000/svg"
 width="700.000000pt" height="700.000000pt" viewBox="0 0 700.000000 700.000000"
 preserveAspectRatio="xMidYMid meet">
<metadata>
Created by potrace 1.11, written by Peter Selinger 2001-2013
</metadata>
<g transform="translate(0.000000,700.000000) scale(0.100000,-0.100000)"
fill="#000000" stroke="none">
<path d="M3149 6996 c-2 -2 -44 -7 -94 -10 -49 -4 -98 -9 -110 -11 -11 -2 -42
-7 -70 -10 -195 -23 -558 -120 -765 -205 -103 -42 -125 -52 -255 -117 -576
-287 -1069 -747 -1394 -1303 -213 -365 -378 -834 -426 -1215 -4 -27 -8 -61
-11 -75 -26 -162 -26 -1053 0 -1099 2 -3 6 -33 10 -66 9 -88 59 -324 95 -450
262 -909 892 -1663 1742 -2087 65 -32 120 -58 123 -58 3 0 29 -11 58 -24 71
-33 240 -96 256 -96 7 0 20 -4 30 -10 61 -33 433 -115 617 -135 33 -4 71 -9
85 -12 14 -3 189 -7 390 -9 318 -3 411 0 615 20 52 5 229 34 280 46 170 40
237 58 358 97 282 90 558 224 817 397 89 59 248 176 286 211 6 5 40 35 75 65
247 215 533 560 674 815 15 28 31 55 35 60 13 16 125 244 155 315 15 36 33 79
40 95 45 104 146 439 161 534 2 14 9 46 14 71 11 51 15 74 29 185 6 44 14 96
17 115 3 19 7 200 10 403 l4 367 -24 25 -25 25 -1699 0 -1699 0 -27 -21 -26
-20 0 -309 0 -309 26 -20 27 -21 1333 0 c984 0 1340 -3 1358 -12 14 -6 28 -20
32 -31 5 -16 -1 -108 -11 -157 -2 -8 -6 -31 -10 -50 -85 -460 -292 -892 -605
-1265 -46 -55 -254 -260 -305 -300 -27 -22 -52 -43 -55 -46 -3 -3 -42 -33 -88
-67 -145 -107 -326 -212 -508 -294 -132 -60 -386 -143 -504 -165 -14 -2 -44
-8 -67 -14 -158 -35 -293 -44 -638 -44 -357 0 -413 5 -665 56 -53 11 -91 20
-208 53 -164 45 -413 155 -590 260 -90 54 -285 186 -302 205 -3 3 -43 38 -91
78 -123 104 -265 254 -375 398 -302 395 -494 881 -541 1370 -16 164 -7 823 11
854 2 3 6 29 10 56 12 98 61 301 103 425 113 334 291 647 514 907 65 75 265
270 344 333 298 242 745 462 1075 529 144 29 209 41 240 45 19 2 62 8 95 13
127 17 806 8 867 -11 7 -3 33 -7 58 -10 42 -5 56 -7 120 -21 14 -3 34 -7 45
-9 28 -6 129 -32 200 -51 99 -28 329 -122 453 -187 327 -171 614 -405 857
-699 217 -262 441 -707 510 -1014 8 -37 28 -67 50 -75 15 -6 153 -10 324 -10
291 0 299 1 326 22 25 19 27 25 21 67 -22 164 -146 552 -236 741 -12 25 -34
70 -48 100 -194 406 -530 824 -907 1127 -237 190 -460 326 -765 466 -155 71
-494 178 -640 203 -14 3 -32 7 -40 9 -8 3 -33 7 -55 10 -22 3 -62 10 -90 15
-27 5 -77 12 -110 15 -33 4 -71 9 -85 12 -28 6 -805 14 -811 9z"/>
<path d="M3219 5946 c-2 -2 -33 -7 -69 -10 -630 -64 -1222 -398 -1623 -917
-82 -106 -207 -316 -261 -439 -16 -36 -37 -83 -46 -105 -67 -150 -137 -429
-157 -620 -16 -160 -9 -682 11 -790 2 -11 7 -40 11 -65 19 -124 86 -363 130
-465 91 -214 177 -368 288 -520 28 -38 54 -72 57 -75 3 -3 22 -27 44 -53 100
-125 301 -308 461 -419 80 -56 103 -70 225 -137 199 -110 492 -212 715 -247
159 -25 219 -29 495 -29 351 0 426 7 665 66 412 101 792 315 1089 613 107 108
145 151 233 271 40 55 78 105 83 112 6 7 10 15 10 17 0 3 15 29 34 58 42 67
128 236 156 308 11 30 27 69 34 85 8 17 22 58 31 93 21 73 10 108 -34 119 -14
4 -164 6 -332 6 -258 0 -310 -3 -329 -16 -11 -8 -46 -63 -76 -122 -46 -91
-110 -194 -154 -248 -163 -201 -306 -328 -492 -435 -96 -56 -212 -112 -231
-112 -7 0 -17 -4 -23 -9 -13 -12 -182 -62 -264 -78 -128 -24 -220 -31 -408
-31 -118 0 -230 4 -250 9 -21 4 -61 10 -91 14 -131 16 -314 76 -471 154 -500
249 -846 735 -917 1288 -10 76 -10 493 0 563 43 307 153 576 335 815 68 89
236 254 328 322 229 169 448 259 774 319 58 11 501 14 560 4 30 -6 71 -12 90
-14 81 -10 252 -59 355 -101 209 -86 372 -194 536 -355 154 -151 244 -275 349
-482 18 -37 41 -71 49 -75 23 -10 642 -12 669 -2 54 21 49 73 -25 258 -250
623 -750 1107 -1387 1342 -83 31 -270 82 -346 95 -25 4 -47 8 -50 9 -8 2 -91
15 -135 22 -44 6 -640 14 -646 9z"/>
</g>
</svg>
