<?xml version="1.0" encoding="utf-8"?>
<!-- Generator: Adobe Illustrator 24.0.1, SVG Export Plug-In . SVG Version: 6.00 Build 0)  -->
<svg version="1.1" id="Layer_1" xmlns="http://www.w3.org/2000/svg" xmlns:xlink="http://www.w3.org/1999/xlink" x="0px" y="0px"
	 viewBox="0 0 1000 1000" style="enable-background:new 0 0 1000 1000;" xml:space="preserve">
<g>
	<path d="M514.3,712.6c0,46.3-17,81-51,104.1c-34,23.1-75.5,34.7-124.7,34.7H177.6c-51.4,0-93.8-10.3-127.2-30.8
		C16.9,800,0.2,768.3,0.2,725.4c0-27.4,7.3-49.3,21.8-65.5c14.6-16.3,35.8-25.6,63.8-27.8v-18c-20-3.4-36.4-11.6-49.3-24.7
		c-12.9-13.1-19.3-33.3-19.3-60.6c0-24.5,7.7-46.5,23.1-66.1c15.4-19.6,41.4-30.9,78-33.7v-16.2c-28-9.2-46.8-23.1-56.5-41.7
		c-9.7-18.6-14.6-36.5-14.6-53.7v-23.2c0-39.5,16.8-72.2,50.6-98c33.7-25.8,81.1-38.7,142.2-38.7h252.8v77.1l-132.8-19.7v15.4
		c22.8,6.3,40.1,18.3,51.8,36c11.7,17.7,17.6,35.4,17.6,53.1v22.3c0,39.4-15.1,71.3-45.4,95.5c-30.3,24.3-79.4,36.4-147.4,36.4H133
		c-15.4,0-27.1,3.9-35.1,11.6c-8,7.7-12,20.7-12,39c0,17.7,5.6,31,16.7,39.8c11.1,8.9,27.8,13.3,50.1,13.3h194.5
		c48,0,87.8,10.6,119.5,31.7C498.4,630.1,514.3,664.6,514.3,712.6z M175.9,782h173.9c25.7,0,46.5-4.8,62.5-14.5
		c16-9.7,24-26.4,24-50.2c0-22.7-7.3-38.9-21.8-48.5c-14.6-9.6-33.3-14.5-56.1-14.5H85.9v57.9c0,23.3,7.7,40.7,23.1,52.3
		C124.5,776.2,146.7,782,175.9,782z M240.1,409.3c34.8,0,61.4-6.3,79.7-18.9c18.3-12.6,27.4-32.4,27.4-59.4v-27.5
		c0-27-9.1-46.6-27.4-59C301.5,232.1,275,226,240.1,226c-34.8,0-61.4,6.2-79.7,18.5c-18.3,12.3-27.4,32-27.4,59V331
		c0,27,9.1,46.8,27.4,59.4C178.7,403,205.3,409.3,240.1,409.3z"/>
	<path d="M788.6,680c-74.8,0-131.2-16.4-169.2-49.3c-38-32.8-57-81.2-57-145.2V346.8c0-65.1,19-114.4,57-147.8
		c38-33.4,94.1-50.1,168.4-50.1c66.3,0,117.2,15,152.9,45c35.7,30,55.5,73.8,59.5,131.5l-84,5.1c-2.3-35.4-14-61.7-35.1-78.8
		C860,234.5,828.6,226,786.9,226c-46.8,0-81.7,9.9-104.5,29.6c-22.9,19.7-34.3,50.1-34.3,91.2v138.8c0,39.4,11.6,68.8,34.7,88.2
		c23.1,19.4,58.4,29.1,105.8,29.1c41.1,0,72.2-7.3,93.4-21.8c21.1-14.6,32.6-36.4,34.3-65.5l84,5.1c-4,52.6-23.7,92.2-59.1,119.1
		C905.7,666.6,854.9,680,788.6,680z"/>
</g>
</svg>
