<svg xmlns="http://www.w3.org/2000/svg" viewBox="0 0 1000 1000"><defs><style>.cls-1{fill:#ff3b4a;}</style></defs><g id="Layer_1" data-name="Layer 1"><path class="cls-1" d="M1000,480v40q0,15.12-.92,30C983.59,801.12,775,1000,520,1000H480C214.9,1000,0,785.1,0,520V480C0,214.9,214.9,0,480,0h40C753.65,0,948.32,167,991.2,388.07A10,10,0,0,1,981.38,400H900.26a12,12,0,0,1-11.64-9.16C847,223.78,696,100,516,100H484c-212.08,0-384,171.92-384,384v32c0,212.08,171.92,384,384,384h32c196.78,0,359-148,381.36-338.79A10,10,0,0,0,887.43,550H510a10,10,0,0,1-10-10V460a10,10,0,0,1,10-10H989.57a10,10,0,0,1,10,9.57Q1000,469.73,1000,480Z" transform="translate(0)"/></g><g id="Layer_2" data-name="Layer 2"><path class="cls-1" d="M825.74,599.64a10,10,0,0,1,9.58,12.88C793.22,750,665.28,850,514,850H486c-185.57,0-336-150.43-336-336V486c0-185.57,150.43-336,336-336h28c151,0,278.76,99.63,321.09,236.74a10,10,0,0,1-9.57,12.9H740.33a12.07,12.07,0,0,1-11-7.21C692,308.51,607.81,250,510,250H490c-132.55,0-240,107.45-240,240v20c0,132.55,107.45,240,240,240h20A240,240,0,0,0,729.63,606.88a12.07,12.07,0,0,1,11-7.24Z" transform="translate(0)"/></g></svg>