<?xml version="1.0" encoding="utf-8"?>
<!-- Generator: Adobe Illustrator 24.2.3, SVG Export Plug-In . SVG Version: 6.00 Build 0)  -->
<svg version="1.1" id="Layer_1" xmlns="http://www.w3.org/2000/svg" xmlns:xlink="http://www.w3.org/1999/xlink" x="0px" y="0px"
	 viewBox="0 0 400 400" style="enable-background:new 0 0 400 400;" xml:space="preserve">
<g id="Layer_1_1_">
	<path d="M400,192v16c0,4-0.1,8-0.4,12C393.4,320.4,310,400,208,400h-16C86,400,0,314,0,208v-16C0,86,86,0,192,0h16
		c93.5,0,171.3,66.8,188.5,155.2c0.5,2.5-1.4,4.8-3.9,4.8h-32.4c-2.2,0-4.1-1.5-4.7-3.7C338.8,89.5,278.4,40,206.4,40h-12.8
		C108.8,40,40,108.8,40,193.6v12.8C40,291.2,108.8,360,193.6,360h12.8c78.7,0,143.6-59.2,152.5-135.5c0.3-2.4-1.6-4.5-4-4.5H204
		c-2.2,0-4-1.8-4-4v-32c0-2.2,1.8-4,4-4h191.8c2.1,0,3.9,1.7,4,3.8C399.9,186.5,400,189.3,400,192z"/>
</g>
<g id="Layer_2_1_">
	<path d="M330.3,239.9c2.7,0,4.6,2.6,3.8,5.2c-16.8,55-68,95-128.5,95h-11.2C120.2,340,60,279.8,60,205.6v-11.2
		C60,120.2,120.2,60,194.4,60h11.2C266,60,317.1,99.9,334,154.7c0.8,2.6-1.1,5.2-3.8,5.2h-34.1c-1.9,0-3.6-1.1-4.4-2.9
		c-15-33.6-48.6-57-87.7-57h-8c-53,0-96,43-96,96v8c0,53,43,96,96,96h8c39.2,0,73-23.5,87.9-57.2c0.8-1.8,2.5-2.9,4.4-2.9H330.3z"/>
</g>
</svg>
