<?xml version="1.0" encoding="UTF-8"?><svg id="Layer_3" xmlns="http://www.w3.org/2000/svg" viewBox="0 0 400 400"><path d="M189.218825,349.09168c-52.057087-2.341379-106.797054-21.227152-154.129115-59.650444-8.44455-6.855034-15.224914-16.038175-21.760184-24.894663-6.860553-9.297126-3.877013-22.289244,5.474278-28.815126,9.349925-6.525258,22.507835-4.498509,29.38466,5.540926,17.181644,25.083441,40.958495,41.550856,68.301514,53.417956,31.220033,13.55002,64.010757,21.071789,97.859039,16.8762,50.390248-6.246072,94.608476-25.894453,126.478216-67.511357,10.80043-14.103707,16.464079-30.351817,17.402232-48.208055.1994-3.793909.739846-7.688921,1.89293-11.290773,3.148249-9.833325,12.994683-15.348331,23.25373-13.445482,9.707674,1.800653,17.312951,11.108397,16.574275,21.335204-2.321463,32.141696-13.763874,60.578173-35.70063,84.408246-21.925206,23.817738-48.17344,41.432967-78.197076,53.457929-28.316995,11.34152-57.445479,18.854857-96.833868,18.779439Z"/><path d="M84.555072,93.679052c-.144262,23.346261-19.054711,41.919121-42.572616,41.812553C18.594571,135.385661-.076209,116.515971.000234,93.062127c.077262-23.696726,19.062828-42.346956,42.910737-42.152869,23.281357.189481,41.789768,19.198139,41.644101,42.769794Z"/><path d="M312.154597,95.766853c-.032934,23.754343-18.924692,42.439705-42.756095,42.289026-23.316944-.1474-41.901135-19.094069-41.800772-42.615914.099661-23.349071,19.011554-42.048799,42.453445-41.977285,23.419493.071436,42.135888,18.877029,42.103423,42.304172Z"/></svg>