<?xml version="1.0" encoding="utf-8"?>
<!-- Generator: Adobe Illustrator 24.1.3, SVG Export Plug-In . SVG Version: 6.00 Build 0)  -->
<svg version="1.1" xmlns="http://www.w3.org/2000/svg" xmlns:xlink="http://www.w3.org/1999/xlink" x="0px" y="0px"
	 viewBox="0 0 1000 1000" style="enable-background:new 0 0 1000 1000;" xml:space="preserve">
<g id="Layer_1">
	<path d="M1000,480v40c0,10.08-0.31,20.08-0.92,30C983.59,801.12,775.02,1000,520,1000h-40C214.9,1000,0,785.1,0,520v-40
		C0,214.9,214.9,0,480,0h40c233.65,0,428.32,166.95,471.2,388.07c1.2,6.18-3.52,11.93-9.82,11.93h-81.12
		c-5.53,0-10.31-3.79-11.64-9.16C847,223.78,695.96,100,516,100h-32c-212.08,0-384,171.92-384,384v32c0,212.08,171.92,384,384,384
		h32c196.78,0,358.99-148.01,381.36-338.79c0.7-5.96-3.93-11.21-9.93-11.21H510c-5.52,0-10-4.48-10-10v-80c0-5.52,4.48-10,10-10
		h479.57c5.36,0,9.78,4.22,10,9.57C999.86,466.34,1000,473.15,1000,480z"/>
</g>
<g id="Layer_2">
	<path d="M825.74,599.64c6.7,0,11.54,6.47,9.58,12.88C793.22,750.02,665.28,850,514,850h-28c-185.57,0-336-150.43-336-336v-28
		c0-185.57,150.43-336,336-336h28c151.01,0,278.76,99.63,321.09,236.74c1.98,6.41-2.86,12.9-9.57,12.9h-85.18
		c-4.77,0-9.06-2.85-11-7.21C691.95,308.51,607.81,250,510,250h-20c-132.55,0-240,107.45-240,240v20c0,132.55,107.45,240,240,240h20
		c98.08,0,182.41-58.82,219.63-143.12c1.93-4.38,6.23-7.24,11.02-7.24H825.74z"/>
</g>
</svg>
