<?xml version="1.0" encoding="UTF-8"?><svg id="Layer_2" xmlns="http://www.w3.org/2000/svg" viewBox="0 0 400 400"><path d="M191.564168,299.338253c-6.254295-1.34565-12.464429-2.597343-18.629088-4.04305-3.190588-.748239-6.319842-1.781524-9.438229-2.803802-1.426184-.467457-2.343192-.126929-2.909366,1.196905-1.293379,3.024094-2.578618,6.052303-3.808395,9.102527-.170721.423379-.157995,1.044937.022167,1.466928,2.104099,4.928283,1.540601,9.781202-1.123179,14.165425-3.031589,4.989666-6.253688,1.227671-10.036607,5.649525-3.614181,4.224519-6.097799,8.988984-8.718632,13.766192-8.808763,16.056723-18.911202,3.627857-32.548609,16.051274-15.660766,14.266671-33.71326,24.290229-54.360634,29.289415-6.781134,1.641951-13.751569,2.151305-20.531055-.293524-2.444295-.881416-4.832577-2.027152-7.068595-3.352474-3.456601-2.048869-4.186229-6.474988-1.662818-9.68551.702894-.894258.739125-1.543234.348015-2.495998-.456193-1.111277-.784104-2.279573-1.109636-3.439391-.673788-2.400503-1.069068-4.748748-3.830779-6.076053-2.136241-1.02674-2.6714-3.588632-2.588084-5.855067.245431-6.676885.69331-2.443832,1.058567-9.116403.243195-4.44258.539261-8.883226.708433-13.328682.357135-9.384598.520105-2.111701,1.008756-11.488861.318537-6.112595,1.127733-3.476057,1.614735-9.581859.841678-10.552596,1.668425-21.107325,2.374814-31.669589.419448-6.271851.525681-12.56418.901451-18.839552.43195-7.213757.992902-14.419978,1.522647-21.627587.41552-5.653467.801024-11.310405,1.323749-16.954352.559421-6.040056,1.234622-12.070097,1.913416-18.098353.670734-5.956809,1.356269-11.912898,2.13064-17.85684,1.06024-8.138136,2.036556-16.293154,3.367833-24.388426,1.535676-9.338214,3.315296-18.63996,5.172445-27.920808,3.730091-18.64058,10.243156-36.175114,21.020697-51.980308.704487-1.033111,1.16926-2.251039,1.624177-3.429871,3.495167-9.057209,9.313578-16.380368,16.956599-22.214511,5.823441-4.445233,11.921797-8.528097,17.835406-12.857481,6.961179-5.096341,13.630021-10.626523,20.822921-15.365032,17.085575-11.255542,35.777497-18.691129,55.926704-22.445092,11.116753-2.071181,22.308123-3.217017,33.601197-2.690607,13.560595.632119,26.496346,4.152601,38.98516,9.332338,17.021056,7.059533,32.867164,16.165332,47.243795,27.734132,12.399748,9.977993,22.253529,22.216594,30.866294,35.485951,3.77432,5.81493,7.181971,11.867803,10.773477,17.802077.414572.684998.960066,1.289301,1.410943,1.953994.982097,1.447814,2.17122,2.808339,2.87373,4.3839,4.072468,9.133813,8.065611,18.303647,12.015088,27.491603,6.640864,15.448999,11.848852,31.373214,15.68473,47.747831.195577.834883.526684,1.662602.933475,2.418948,1.45508,2.70558,1.776175,5.536727,1.727603,8.608419-.049365,3.119861.675721,6.2513,1.052923,9.378747.797821,6.614363,1.685995,13.219552,2.367144,19.846013,2.432765,23.667283,2.164331,47.417765,1.955768,71.15709-.256292,29.170418-.829467,32.950027-.981354,62.120643-.082102,15.765281.446218,20.630936.641473,36.398498.018091,1.46311.542966,2.116846,1.899638,2.588171,2.722463.945773,5.397296,2.04401,8.043381,3.191036,3.905886,1.69312,5.460786,5.274811,3.873819,8.690353-1.575717,3.391346-5.312889,4.486113-9.168469,2.681087-.854521-.400026-1.706167-.806696-2.550503-1.227745-2.032046-1.013254-3.821951-1.789358-6.339048-.58928-3.00879,1.4346-6.395971-.390506-7.996965-3.699993-.585194-1.209647-1.366386-1.859516-2.608814-2.17327-4.607256-1.163536-9.188864-2.43526-13.818523-3.499038-1.2683-.291491-2.675626.086421-4.010762.010214-4.341795-.248058-8.169446-1.917378-11.813439-4.216834-4.714288-2.97481-9.619123-5.653467-14.274035-8.715094-12.415683-8.166273-22.960599-7.479658-32.377405-18.938263-14.961676-18.205747-27.930089-21.060135-38.310182-42.208513-4.160146-8.475912-7.362654-8.700344-10.999387-17.433238-.17875-.429279-.341293-.865252-.312744-.792565-8.728644,1.600203-17.278265,3.167633-25.836436,4.7366M189.771463,48.053909c-12.996392,12.68568-25.715191,25.12541-38.462788,37.535539-10.858255,10.570768-21.407012,21.424029-31.01201,33.170406-11.033561,13.493368-20.40794,28.042457-28.352802,43.556085-1.726848,3.37191-2.182595,6.858206-1.9479,10.366119.714529,10.679848,1.540849,21.362721,2.755026,31.995144.865066,7.575258,3.246607,14.790751,7.414869,21.284877,6.701405,10.440889,15.652068,18.726902,25.569946,25.959302,6.786617,4.948959,13.940089,9.392531,20.890327,14.11976,4.207157,2.861515,7.296326,6.552683,8.395355,11.705126.143015.670495.920304,1.427659,1.589768,1.723067,2.25912.997189,4.574929,1.885299,6.917477,2.670576,12.22313,4.097441,24.655119,7.050435,37.652527,7.196354,9.327839.104766,18.358101-1.310199,27.084019-4.594201.751751-.283013,1.536983-.823108,2.000152-1.465093,1.654721-2.293605,3.774419-3.340178,6.616652-3.119985.876056.067878,1.952224-.076009,2.657485-.544012,6.506745-4.317733,13.217865-8.38721,19.361312-13.18068,13.622426-10.629002,25.087782-23.407921,35.314105-37.290481,10.158669-13.790636,18.56981-28.510236,23.141109-45.173394.491742-1.792556.965369-3.66893.953301-5.50316-.019825-3.022582-.440568-6.042759-.69748-9.063481-.279711-3.289381-.452141-6.593613-.895436-9.86093-.225637-1.663395-.540562-3.564015-1.502487-4.838069-6.820704-9.033881-13.695061-18.033575-20.798028-26.845948-6.479263-8.0386-13.069745-16.005926-19.970147-23.681736-8.641511-9.612624-18.203067-18.285996-28.475161-26.161273-12.941748-9.922015-26.617058-18.654686-41.391384-25.595669-1.786262-.839197-3.768348-1.436286-5.720523-1.707771-3.285353-.456921-6.587013-.678081-9.087284-2.65647Z"/><path d="M197.80907,231.977543c-16.530156-.743479-33.912232-6.740449-48.942007-18.941343-2.681474-2.176741-4.834504-5.092746-6.909708-7.905027-2.178493-2.9522-1.231103-7.077705,1.738297-9.149927,2.968966-2.072024,7.147116-1.428452,9.330776,1.75946,5.455842,7.964971,13.00592,13.194018,21.688396,16.962285,9.913579,4.30266,20.325913,6.691115,31.074063,5.358852,16.00087-1.983372,30.041882-8.222499,40.161768-21.43749,3.429558-4.478477,5.227987-9.637886,5.525888-15.307938.063317-1.204714.23493-2.441532.601079-3.585261.999692-3.122464,4.126319-4.873694,7.383966-4.269465,3.082565.571777,5.497537,3.527349,5.262979,6.77476-.737155,10.206243-4.370567,19.235934-11.336343,26.802911-6.962108,7.563061-15.296947,13.156584-24.830623,16.974978-8.991751,3.601375-18.241181,5.987153-30.748531,5.963205Z"/><path d="M164.574245,150.874068c-.045809,7.413349-6.050614,13.310957-13.518467,13.277117-7.426566-.033641-13.355267-6.025504-13.330993-13.473015.024534-7.524635,6.053192-13.446811,13.625833-13.38518,7.392739.060168,13.269882,6.096158,13.223627,13.581078Z"/><path d="M236.845974,151.537027c-.010458,7.542931-6.009328,13.476262-13.576728,13.428416-7.40404-.046805-13.305245-6.063112-13.273376-13.532215.031646-7.414241,6.03691-13.352134,13.480625-13.329426,7.436603.022684,13.379789,5.994193,13.369479,13.433225Z"/></svg>